<svg id="Layer_1" data-name="Layer 1" xmlns="http://www.w3.org/2000/svg" viewBox="0 0 165.26 165.26"><defs><style>.cls-1{fill:#fff8f0;}.cls-2,.cls-4{fill:none;stroke-width:4.55px;}.cls-2{stroke:#ffdb77;}.cls-2,.cls-3,.cls-4{stroke-miterlimit:10;}.cls-3{fill:#ffdb77;stroke-width:5.09px;}.cls-3,.cls-4{stroke:#6d6e6e;}</style></defs><title>breakfast</title><circle class="cls-1" cx="82.63" cy="82.63" r="82.63"/><path class="cls-2" d="M459,660.65A71.61,71.61,0,1,1,530.63,589,71.69,71.69,0,0,1,459,660.65Z" transform="translate(-376.39 -508.25)"/><circle class="cls-3" cx="83.86" cy="80.79" r="18.9"/><path class="cls-4" d="M464.79,640.08c7.84-3.83,4.59-11.43,15-22.41,11.24-11.84,20.25-8.53,26.14-18.9,4.59-8.09,4.35-19.34-.32-26.9-4.06-6.55-8.72-5.94-22.52-14.42-16.91-10.39-15.74-14.9-24.14-17.17-15.87-4.29-38.24,6.86-41.64,20.9-2.41,10,6.67,13.39,8.42,32.24,1.4,15-3.91,17.85-.65,26.73C430.65,635.3,452.8,645.94,464.79,640.08Z" transform="translate(-376.39 -508.25)"/></svg>