<svg id="Layer_1" data-name="Layer 1" xmlns="http://www.w3.org/2000/svg" viewBox="0 0 165.37 165.33"><defs><style>.cls-1{fill:#fff8f0;}.cls-2,.cls-4,.cls-5,.cls-6,.cls-8{fill:none;}.cls-2{stroke:#ffdb77;}.cls-2,.cls-3,.cls-4,.cls-5,.cls-6,.cls-7,.cls-8{stroke-miterlimit:10;}.cls-2,.cls-4,.cls-7{stroke-width:4.55px;}.cls-3{fill:#ffdb77;stroke-width:5.09px;}.cls-3,.cls-4,.cls-6,.cls-7,.cls-8{stroke:#6d6e6e;}.cls-5{stroke:#b2ddc4;stroke-width:4.55px;}.cls-6{stroke-width:4.48px;}.cls-7{fill:#eda394;}.cls-8{stroke-width:3.41px;}</style></defs><title>lunch</title><circle class="cls-1" cx="82.63" cy="82.63" r="82.63"/><path class="cls-2" d="M459,660.65A71.61,71.61,0,1,1,530.63,589,71.69,71.69,0,0,1,459,660.65Z" transform="translate(-376.39 -508.25)"/><circle class="cls-3" cx="83.86" cy="80.79" r="18.9"/><path class="cls-4" d="M464.79,640.08c7.84-3.83,4.59-11.43,15-22.41,11.24-11.84,20.25-8.53,26.14-18.9,4.59-8.09,4.35-19.34-.32-26.9-4.06-6.55-8.72-5.94-22.52-14.42-16.91-10.39-15.74-14.9-24.14-17.17-15.87-4.29-38.24,6.86-41.64,20.9-2.41,10,6.67,13.39,8.42,32.24,1.4,15-3.91,17.85-.65,26.73C430.65,635.3,452.8,645.94,464.79,640.08Z" transform="translate(-376.39 -508.25)"/><circle class="cls-1" cx="82.74" cy="82.7" r="82.63"/><path class="cls-5" d="M459.13,664.44A73.48,73.48,0,1,1,532.61,591,73.56,73.56,0,0,1,459.13,664.44Z" transform="translate(-376.39 -508.25)"/><path class="cls-6" d="M446.85,649.32c-26.54-10.93-33.17-94.77-2.84-111.44,14.23-7.82,38.74-2,47.91,12.78,8.45,13.64,1.83,31.59.91,34.07-5,13.45-11.66,12-17.39,25.55-7.52,17.73.1,29.35-8.34,36.56C461.75,651.41,452.78,651.76,446.85,649.32Z" transform="translate(-376.39 -508.25)"/><path class="cls-7" d="M458.47,641.1c-3,1.45-6.41.16-7.87-.48-15.05-6.57-16.36-39.36-16.64-44.45-1.34-24,4.75-44.54,14.81-50.07A21.52,21.52,0,0,1,459,543.84c10.07,0,20.4,4.88,24.57,11.61,6.08,9.81,1.5,21.63,0,25.55-5.24,13.76-12,12.66-17.49,25.51C459.08,623.06,465.76,637.56,458.47,641.1Z" transform="translate(-376.39 -508.25)"/><line class="cls-8" x1="69.92" y1="39.57" x2="106" y2="75.65"/><line class="cls-8" x1="62.17" y1="51.62" x2="97.49" y2="86.93"/><line class="cls-8" x1="58.28" y1="67.52" x2="89.52" y2="98.77"/><line class="cls-8" x1="57.38" y1="86.42" x2="86.15" y2="115.19"/><line class="cls-8" x1="60.23" y1="109.07" x2="83.25" y2="132.08"/><line class="cls-8" x1="85.9" y1="35.76" x2="110.29" y2="60.14"/></svg>