<svg id="Layer_1" data-name="Layer 1" xmlns="http://www.w3.org/2000/svg" viewBox="0 0 165.51 165.91"><defs><style>.cls-1{fill:#fff8f0;}.cls-11,.cls-13,.cls-2,.cls-4,.cls-5,.cls-6,.cls-8,.cls-9{fill:none;}.cls-2{stroke:#ffdb77;}.cls-10,.cls-11,.cls-12,.cls-13,.cls-14,.cls-2,.cls-3,.cls-4,.cls-5,.cls-6,.cls-7,.cls-8,.cls-9{stroke-miterlimit:10;}.cls-13,.cls-2,.cls-4,.cls-7,.cls-9{stroke-width:4.55px;}.cls-3{fill:#ffdb77;stroke-width:5.09px;}.cls-10,.cls-11,.cls-12,.cls-13,.cls-14,.cls-3,.cls-4,.cls-6,.cls-7,.cls-8{stroke:#6d6e6e;}.cls-5{stroke:#b2ddc4;stroke-width:4.55px;}.cls-6{stroke-width:4.48px;}.cls-7{fill:#eda394;}.cls-8{stroke-width:3.41px;}.cls-9{stroke:#b0e1f0;}.cls-10,.cls-12,.cls-14{fill:#b3dbb2;}.cls-10,.cls-11{stroke-width:4px;}.cls-11,.cls-13{stroke-linecap:round;}.cls-12{stroke-width:3px;}.cls-14{stroke-width:3.56px;}</style></defs><title>snacks</title><circle class="cls-1" cx="82.77" cy="82.63" r="82.63"/><path class="cls-2" d="M459,660.65A71.61,71.61,0,1,1,530.63,589,71.69,71.69,0,0,1,459,660.65Z" transform="translate(-376.25 -508.25)"/><circle class="cls-3" cx="84" cy="80.79" r="18.9"/><path class="cls-4" d="M464.79,640.08c7.84-3.83,4.59-11.43,15-22.41,11.24-11.84,20.25-8.53,26.14-18.9,4.59-8.09,4.35-19.34-.32-26.9-4.06-6.55-8.72-5.94-22.52-14.42-16.91-10.39-15.74-14.9-24.14-17.17-15.87-4.29-38.24,6.86-41.64,20.9-2.41,10,6.67,13.39,8.42,32.24,1.4,15-3.91,17.85-.65,26.73C430.65,635.3,452.8,645.94,464.79,640.08Z" transform="translate(-376.25 -508.25)"/><circle class="cls-1" cx="82.88" cy="82.7" r="82.63"/><path class="cls-5" d="M459.13,664.44A73.48,73.48,0,1,1,532.61,591,73.56,73.56,0,0,1,459.13,664.44Z" transform="translate(-376.25 -508.25)"/><path class="cls-6" d="M446.85,649.32c-26.54-10.93-33.17-94.77-2.84-111.44,14.23-7.82,38.74-2,47.91,12.78,8.45,13.64,1.83,31.59.91,34.07-5,13.45-11.66,12-17.39,25.55-7.52,17.73.1,29.35-8.34,36.56C461.75,651.41,452.78,651.76,446.85,649.32Z" transform="translate(-376.25 -508.25)"/><path class="cls-7" d="M458.47,641.1c-3,1.45-6.41.16-7.87-.48-15.05-6.57-16.36-39.36-16.64-44.45-1.34-24,4.75-44.54,14.81-50.07A21.52,21.52,0,0,1,459,543.84c10.07,0,20.4,4.88,24.57,11.61,6.08,9.81,1.5,21.63,0,25.55-5.24,13.76-12,12.66-17.49,25.51C459.08,623.06,465.76,637.56,458.47,641.1Z" transform="translate(-376.25 -508.25)"/><line class="cls-8" x1="70.06" y1="39.57" x2="106.14" y2="75.65"/><line class="cls-8" x1="62.31" y1="51.62" x2="97.63" y2="86.93"/><line class="cls-8" x1="58.42" y1="67.52" x2="89.66" y2="98.77"/><line class="cls-8" x1="57.52" y1="86.42" x2="86.29" y2="115.19"/><line class="cls-8" x1="60.37" y1="109.07" x2="83.39" y2="132.08"/><line class="cls-8" x1="86.04" y1="35.76" x2="110.43" y2="60.14"/><circle class="cls-1" cx="82.63" cy="83.28" r="82.63"/><path class="cls-9" d="M459.88,665a73.48,73.48,0,1,1,73.48-73.48A73.56,73.56,0,0,1,459.88,665Z" transform="translate(-376.25 -508.25)"/><path class="cls-10" d="M507,611.61a29.33,29.33,0,0,0-7.64-18.31,30.46,30.46,0,0,1-2.14-2.18c-4.24-5.27-2.24-10.14-3.87-17.76-.6-2.8-2.2-10.3-8.2-14.68-3.95-2.89-9.4-3.24-12.07-3.27s-8.12.38-12.07,3.27c-6,4.39-7.6,11.89-8.2,14.68-1.63,7.62.36,12.49-3.87,17.76a30.46,30.46,0,0,1-2.14,2.18,29.33,29.33,0,0,0-7.64,18.31c-.36,9.7,4.38,20.56,14.23,25.73,8.7,4.57,17.34,2.56,19.69,1.94,2.35.63,11,2.63,19.69-1.94C502.59,632.17,507.33,621.31,507,611.61Z" transform="translate(-376.25 -508.25)"/><path class="cls-11" d="M473.05,555.41a17.38,17.38,0,0,1,.56-10.65c3.24-8.22,11.87-10.43,12.78-10.65" transform="translate(-376.25 -508.25)"/><path class="cls-12" d="M474.17,541.94a.73.73,0,0,0,.13-1.24,14.91,14.91,0,0,0-14.72-2.14.92.92,0,0,0-.38,1.44c1.23,1.47,3.79,4.17,6.31,4.37S472.27,542.82,474.17,541.94Z" transform="translate(-376.25 -508.25)"/><path class="cls-7" d="M473.9,595.33a23.14,23.14,0,0,0-33.27-19,23.14,23.14,0,0,0-33.27,19c-.23,3.1.37,5.74,1.3,9.83a46.86,46.86,0,0,0,4.66,12.9c2.67,4.77,7.91,14.1,16.4,14.64,2.07.13,6.14-.46,10.91-4.2,4.77,3.74,8.84,4.33,10.91,4.2,8.49-.55,13.74-9.87,16.4-14.64a46.86,46.86,0,0,0,4.66-12.9C473.53,601.06,474.13,598.43,473.9,595.33Z" transform="translate(-376.25 -508.25)"/><path class="cls-13" d="M440.63,576.32a25.27,25.27,0,0,0-1.49-7.81,26.17,26.17,0,0,0-8.6-11.66" transform="translate(-376.25 -508.25)"/><path class="cls-14" d="M436.9,563.3a.91.91,0,0,0,.37,1.51,18.61,18.61,0,0,0,18.21-3.66,1.15,1.15,0,0,0-.15-1.86c-2.06-1.22-6.21-3.31-9.25-2.49S438.77,561.46,436.9,563.3Z" transform="translate(-376.25 -508.25)"/></svg>